<?xml version="1.0" encoding="UTF-8" standalone="no"?>
<svg
   xmlns:dc="http://purl.org/dc/elements/1.1/"
   xmlns:cc="http://creativecommons.org/ns#"
   xmlns:rdf="http://www.w3.org/1999/02/22-rdf-syntax-ns#"
   xmlns:svg="http://www.w3.org/2000/svg"
   xmlns="http://www.w3.org/2000/svg"
   xmlns:sodipodi="http://sodipodi.sourceforge.net/DTD/sodipodi-0.dtd"
   xmlns:inkscape="http://www.inkscape.org/namespaces/inkscape"
   width="210mm"
   height="297mm"
   viewBox="0 0 210 297"
   version="1.1"
   id="svg8"
   inkscape:version="1.0.2 (e86c8708, 2021-01-15)"
   sodipodi:docname="logo.svg"
   inkscape:export-filename="/Users/q0tik/Documents/q0tik.pro/images/blog_selected.png"
   inkscape:export-xdpi="96"
   inkscape:export-ydpi="96">
  <defs
     id="defs2" />
  <sodipodi:namedview
     id="base"
     pagecolor="#ffffff"
     bordercolor="#666666"
     borderopacity="1.0"
     inkscape:pageopacity="0.0"
     inkscape:pageshadow="2"
     inkscape:zoom="0.35"
     inkscape:cx="650"
     inkscape:cy="1188.5714"
     inkscape:document-units="mm"
     inkscape:current-layer="layer1"
     inkscape:document-rotation="0"
     showgrid="false"
     inkscape:pagecheckerboard="true"
     showborder="false"
     inkscape:window-width="1280"
     inkscape:window-height="800"
     inkscape:window-x="1280"
     inkscape:window-y="224"
     inkscape:window-maximized="0" />
  <metadata
     id="metadata5">
    <rdf:RDF>
      <cc:Work
         rdf:about="">
        <dc:format>image/svg+xml</dc:format>
        <dc:type
           rdf:resource="http://purl.org/dc/dcmitype/StillImage" />
        <dc:title></dc:title>
      </cc:Work>
    </rdf:RDF>
  </metadata>
  <g
     inkscape:label="Слой 1"
     inkscape:groupmode="layer"
     id="layer1">
    <path
       style="fill:#000000;fill-opacity:1;fill-rule:nonzero;stroke:none;stroke-width:0.264583"
       id="path28"
       d="m -6.6063656,42.864317 c -1.0044967,-2.583381 -1.7295428,-5.393171 -3.4156544,-7.648358 -0.393191,-0.525896 -0.878109,-0.976519 -1.317164,-1.464778 -0.531928,-0.347782 -1.013227,-0.789324 -1.595783,-1.043347 -0.986568,-0.430192 -2.768496,-0.732018 -3.802322,-0.211524 -9.274453,4.669343 -10.302947,4.520525 -14.972608,10.660168 -2.328844,3.63147 -4.328387,7.604239 -5.21893,11.860244 -0.493662,2.359274 -0.384495,3.133392 -0.393152,5.470573 0.375478,2.888575 1.14209,6.16015 3.668416,7.990628 1.702911,1.233863 2.445943,1.052631 4.474565,1.2973 2.55326,-0.502235 3.361292,-0.447297 5.703527,-1.83382 4.113122,-2.434828 8.237719,-4.870254 12.144837,-7.623542 1.206815,-0.850424 2.1218517,-2.055358 3.1260243,-3.137607 2.3221158,-2.502662 3.7386034,-4.387006 5.8552238,-7.049328 3.9394857,-5.36172 6.8649402,-11.444033 7.8820014,-18.045302 0.035876,-0.618485 0.1998707,-1.723631 -0.068805,-2.382576 -0.1011804,-0.24815 -0.2562834,-0.740354 -0.5002157,-0.629388 -3.6059084,1.640327 -7.1292481,3.493608 -10.471415,5.620382 -0.4432975,0.282091 -0.4265284,0.960496 -0.6309286,1.444548 -0.2993355,0.708877 -0.5868006,1.422707 -0.8802007,2.134061 -2.9378383,9.155498 -4.5852975,18.661856 -6.2537475,28.112381 -1.59184,8.339484 -2.013312,16.823999 -2.282608,25.289242 -0.257039,2.641042 0.434094,5.483281 -0.692955,7.972526 0,0 10.1263784,-4.753676 10.1263784,-4.753676 v 0 c 0.625834,-2.666757 0.1478897,-5.378929 0.1466054,-8.087995 C -6.0784127,78.460633 -5.6269925,70.119488 -4.076562,61.901511 -2.3745584,52.406589 -0.81166188,42.744363 2.8526085,33.769982 3.2122706,33.068664 3.52232,32.3396 3.9315949,31.666031 c 0.2604196,-0.42859 1.3859126,-1.379196 0.9218755,-1.188995 -3.2296764,1.32379 -6.2355233,3.139411 -9.3794618,4.655616 -0.070983,0.03423 0.095996,-0.265998 0.1322025,-0.196003 0.1109284,0.214456 0.1221959,0.470601 0.1345612,0.711732 0.021669,0.422574 -0.021992,0.845976 -0.032989,1.268965 -0.8338629,6.390662 -3.7657991,12.181327 -7.6167153,17.297334 -2.15032,2.666693 -3.500616,4.471069 -5.914027,6.931189 -1.050126,1.070449 -4.78601,2.996557 -3.288268,3.070005 2.221858,0.108961 3.974853,-2.000289 5.992366,-2.937396 1.714006,-0.796131 -6.240616,3.383158 -5.236108,2.174383 -1.640615,-0.0092 -2.545556,0.230841 -3.994544,-0.673031 -2.400152,-1.497201 -2.997036,-4.648602 -3.338332,-7.194058 0.0069,-0.817068 -0.0446,-1.636731 0.02082,-2.451206 0.417161,-5.192847 2.889354,-9.979244 5.814928,-14.184206 0.642951,-0.749877 1.231744,-1.549813 1.928853,-2.249628 0.612246,-0.614622 2.781016,-2.030068 1.986743,-1.68116 -2.613109,1.147882 -5.008199,2.738948 -7.512298,4.108421 0.561172,-0.192942 1.095709,-0.497446 1.683517,-0.578829 0.537614,-0.07443 1.102234,-0.02944 1.623729,0.120931 0.523472,0.150944 0.963261,0.50927 1.444892,0.763905 0.40519,0.426497 0.857443,0.812778 1.21557,1.279493 1.668153,2.173962 2.329352,4.978043 3.047177,7.563278 0,0 9.8275392,-5.412454 9.8275392,-5.412454 z"
       inkscape:export-xdpi="96"
       inkscape:export-ydpi="96" />
    <path
       style="fill:#000000;fill-opacity:1;fill-rule:nonzero;stroke:none;stroke-width:0.264583"
       id="path32"
       d="m 38.661186,57.215447 c -1.973815,0.710014 -4.161459,1.033634 -5.565852,-0.895898 -0.39648,-0.54474 -0.645834,-1.182645 -0.968753,-1.773968 -2.29458,-7.652366 -0.859917,-15.480556 1.020432,-23.050981 1.242703,-3.73325 2.538423,-7.776824 5.228463,-10.785629 0.7195,-0.804761 3.459496,-2.547413 2.492364,-2.067852 -9.983253,4.950281 -8.125724,4.313386 -3.910282,3.665676 0.916958,0.246951 1.892504,0.334657 2.750875,0.740853 4.852334,2.2962 8.084542,8.330271 9.73065,13.153855 0.54142,1.586516 0.847103,3.243929 1.270656,4.865894 0.17189,1.672121 0.492872,3.335586 0.515671,5.016365 0.08661,6.384642 -1.999843,13.385868 -6.941937,17.713372 -1.110914,0.972762 -2.473642,1.613276 -3.710463,2.419911 7.257478,-5.375722 6.209299,-3.415451 1.08349,-3.061533 -1.222481,0.08441 -2.449981,-0.06266 -3.674973,-0.09399 0,0 -8.562313,6.167536 -8.562313,6.167536 v 0 c 1.275863,0.07102 2.550437,0.25486 3.827592,0.213058 7.305836,-0.239112 8.389506,-2.668185 17.011411,-7.039276 1.18776,-0.888164 2.507356,-1.623029 3.563276,-2.664487 4.765487,-4.70022 6.684391,-11.892722 6.501472,-18.414338 -0.04845,-1.727449 -0.390301,-3.434149 -0.585449,-5.151221 -0.437333,-1.670605 -0.762273,-3.374749 -1.311995,-5.011814 -1.766205,-5.259742 -4.840166,-11.263533 -9.858459,-14.131179 -0.917313,-0.524187 -1.974819,-0.75168 -2.962228,-1.12752 -0.960895,0.03449 -2.010346,-0.300921 -2.882683,0.103476 -2.966942,1.375409 -10.86939,4.906319 -14.030703,8.957229 -2.497298,3.20004 -3.73452,7.228607 -4.917386,11.031662 -1.821499,7.806819 -3.285865,16.06501 -1.096814,23.952827 0.346306,0.691348 0.617598,1.425675 1.038918,2.074042 1.533772,2.360311 3.527818,2.718064 6.085167,2.077111 0,0 8.859853,-6.883185 8.859853,-6.883185 z"
       inkscape:export-xdpi="96"
       inkscape:export-ydpi="96" />
    <path
       style="fill:#000000;fill-opacity:1;fill-rule:nonzero;stroke:none;stroke-width:0.264583"
       id="path48"
       d="m 87.979312,23.569331 c -3.747672,3.638294 -6.911252,8.027634 -8.76296,12.945775 -0.505796,1.343392 -0.79339,2.759104 -1.190085,4.138657 -0.117692,1.378974 -0.424572,2.754784 -0.353073,4.136922 0.210627,4.071704 2.263055,8.57427 5.40549,11.231721 3.122234,2.640367 7.190301,4.152768 10.835182,5.804138 1.972818,0.750742 3.945634,1.501484 5.918451,2.252223 0,0 8.310373,-5.592794 8.310373,-5.592794 v 0 c -1.96373,-0.728781 -3.92746,-1.45756 -5.89118,-2.186339 -3.655051,-1.691677 -7.142407,-2.956719 -10.224422,-5.640343 -2.925064,-2.546958 -4.837544,-6.682983 -4.963091,-10.542685 -0.04286,-1.317524 0.27237,-2.622333 0.408556,-3.933499 0.416841,-1.326711 0.725223,-2.692506 1.250519,-3.980133 2.02147,-4.955106 5.454314,-9.462409 9.688706,-12.715572 0,0 -10.432466,4.081929 -10.432466,4.081929 z"
       inkscape:export-xdpi="96"
       inkscape:export-ydpi="96" />
    <path
       style="fill:#000000;fill-opacity:1;fill-rule:nonzero;stroke:none;stroke-width:0.264583"
       id="path50"
       d="m 63.794261,41.221511 c 6.860124,0.570492 13.71373,-0.589605 20.575508,-0.452781 1.701048,0.03392 3.39227,0.267152 5.088405,0.400727 0,0 8.332227,-5.96211 8.332227,-5.96211 v 0 c -1.773224,-0.117822 -3.542903,-0.317394 -5.31967,-0.35346 -6.509187,-0.132122 -13.039381,0.795087 -19.535272,0.06239 0,0 -9.141198,6.305235 -9.141198,6.305235 z"
       inkscape:export-xdpi="96"
       inkscape:export-ydpi="96" />
    <path
       style="fill:#000000;fill-opacity:1;fill-rule:nonzero;stroke:none;stroke-width:0.264583"
       id="path52"
       d="m 137.69577,38.094359 c 0.38433,-0.695611 0.92595,-1.277906 1.45013,-1.867358 0.10847,-0.121983 0.47558,-0.433342 0.32795,-0.363685 -11.14234,5.257405 -8.70292,1.93608 -11.75594,6.882246 -2.2164,4.197583 -6.87777,10.417463 -5.61587,15.410098 0.23294,0.921602 0.87827,1.686142 1.31741,2.529213 3.00524,2.549673 1.3509,1.469501 4.9809,3.212946 0,0 8.94044,-5.925894 8.94044,-5.925894 v 0 c -3.33567,-1.451049 -1.82918,-0.546169 -4.55564,-2.653509 -0.37804,-0.685877 -0.94724,-1.29709 -1.13411,-2.05763 -1.11491,-4.537755 3.80852,-11.209456 6.07308,-14.908218 0.38483,-0.567499 1.82394,-1.850715 1.15448,-1.702495 -7.49693,1.659826 -8.68239,1.638204 -11.44848,5.994175 0,0 10.26565,-4.549889 10.26565,-4.549889 z"
       inkscape:export-xdpi="96"
       inkscape:export-ydpi="96" />
    <path
       style="fill:#000000;fill-opacity:1;fill-rule:nonzero;stroke:none;stroke-width:0.264583"
       id="path58"
       d="m 142.28185,20.907724 c -0.31137,0.0728 -2.48965,0.459243 -2.60809,0.06174 -0.0707,-0.237104 0.4603,-1.007232 0.47376,-1.030277 0.19319,-0.239678 0.34423,-0.520573 0.57956,-0.719035 0.24569,-0.207203 1.1142,-0.641246 0.83817,-0.476598 -2.90638,1.733658 -5.84255,3.417744 -8.7294,5.183723 -0.16766,0.102558 0.36617,-0.150649 0.55951,-0.185943 0.18462,-0.0337 0.11804,0.365675 0.10596,0.55296 -0.45522,1.140024 -0.95911,2.290221 -1.75281,3.243981 -0.23298,0.279959 -1.11098,0.930199 -0.79423,0.750401 8.56422,-4.861387 10.7941,-8.152525 8.68235,-5.096087 -0.15965,-0.585976 -0.20488,-1.138869 -0.0447,-1.719424 0,0 -10.05046,4.994955 -10.05046,4.994955 v 0 c 0.0206,1.118303 0.17664,2.198258 0.85093,3.133199 0.23185,0.135741 0.45728,0.531366 0.69553,0.407223 4.69421,-2.445929 10.44151,-4.179659 12.04281,-9.554773 0.13283,-0.44588 0.16643,-0.915485 0.24965,-1.373228 -0.0875,-0.366693 -0.0972,-0.761305 -0.26256,-1.10008 -0.1799,-0.368478 -0.89724,-1.330779 -1.55009,-0.995192 -4.06065,2.087315 -9.43027,3.386528 -11.50734,7.696118 -0.0657,0.367356 -0.20948,0.729077 -0.19723,1.102069 0.0707,2.152269 1.85382,2.104042 3.44848,1.870625 0,0 8.97022,-6.746354 8.97022,-6.746354 z"
       inkscape:export-xdpi="96"
       inkscape:export-ydpi="96" />
    <path
       style="fill:#000000;fill-opacity:1;fill-rule:nonzero;stroke:none;stroke-width:0.264583"
       id="path62"
       d="m 178.17528,12.269064 c -3.89217,9.637222 -7.6356,19.330729 -11.65581,28.917648 -2.30928,5.247859 -4.60448,10.501722 -7.14734,15.641859 -1.17347,2.372053 -2.45672,4.682686 -3.61847,7.059653 -0.8489,-0.153853 -0.4514,2.093896 0.11082,1.843299 3.8797,-1.729291 7.54883,-3.913984 11.1635,-6.144824 1.10572,-0.682403 1.95134,-1.716368 2.94008,-2.559367 4.1837,-3.567007 6.42732,-5.375497 10.85877,-9.021969 6.6817,-5.403231 13.21339,-10.989214 20.02027,-16.235634 0,0 -9.83019,3.946094 -9.83019,3.946094 v 0 c -6.35133,5.320166 -12.63078,10.727763 -19.12052,15.880748 -3.88377,3.111418 -7.75183,6.242455 -11.64167,9.34629 -1.13908,0.908915 -4.83767,3.099035 -3.43479,2.70461 3.02231,-0.849736 5.55648,-2.949358 8.46951,-4.120139 0.65592,-0.26362 -0.64937,2.5947 0.45741,-0.200724 3.17589,-7.44189 6.71063,-14.734174 9.70997,-22.254504 4.14834,-9.850134 8.01995,-19.852605 12.85651,-29.3898126 0,0 -10.13805,4.5867726 -10.13805,4.5867726 z"
       inkscape:export-xdpi="96"
       inkscape:export-ydpi="96" />
    <path
       style="fill:#000000;fill-opacity:1;fill-rule:nonzero;stroke:none;stroke-width:0.264583"
       id="path64"
       d="m 171.65347,52.56434 c 2.19607,3.949639 4.88521,7.5863 7.50603,11.257063 0,0 8.91435,-5.244835 8.91435,-5.244835 v 0 c -2.49423,-3.714224 -5.08319,-7.408781 -6.73012,-11.601151 0,0 -9.69026,5.588923 -9.69026,5.588923 z"
       inkscape:export-xdpi="96"
       inkscape:export-ydpi="96" />
    <path
       style="fill:#ff0000;stroke-width:0.246835"
       id="path98"
       d="m 106.42568,171.73831 c -0.35407,-1.10378 -0.60344,-2.14239 -1.34132,-3.078 -1.70076,-2.15654 -4.40754,-3.07542 -6.910822,-1.81885 -2.100617,1.05444 -3.973844,2.55991 -5.960767,3.83986 -0.747218,1.03004 -1.644762,1.95439 -2.241657,3.09012 -1.89015,3.59639 -3.234198,10.39537 0.947746,12.94467 0.850634,0.51854 1.896812,0.52778 2.845218,0.79166 1.11505,-0.26059 2.304247,-0.28278 3.345159,-0.78177 7.236263,-3.46883 11.133163,-7.79965 15.051653,-14.80325 0.8772,-1.97876 3.61105,-7.99336 -2.55855,-0.69711 -0.44527,0.52659 -0.18224,1.40383 -0.25014,2.10857 -0.0883,0.91604 -0.14549,1.83515 -0.21825,2.75273 -0.0241,1.11676 -0.0737,2.23322 -0.0722,3.35028 0.005,4.05356 0.20966,8.10678 0.21517,12.16146 0.006,4.44306 -0.0364,4.36008 -0.21551,8.76349 -0.47074,5.21959 -1.38629,10.58121 -4.26736,14.97883 -1.47898,2.25746 -2.46127,2.90979 -4.38306,4.61365 -0.762706,0.47999 -1.424406,1.22954 -2.288135,1.43997 -0.470781,0.11471 1.358903,-0.79014 0.991796,-1.12413 -0.513297,-0.46699 -1.345953,0.26205 -2.017879,0.19062 -2.631688,-0.27979 -2.516261,-2.28455 -2.700732,-4.48017 0.171441,-0.98972 0.224927,-2.01105 0.514319,-2.96917 2.07603,-6.87329 7.807621,-11.80338 12.906051,-16.09955 4.82282,-3.82233 2.4229,-1.96173 7.19708,-5.58575 0,0 -3.28967,1.38335 -3.28967,1.38335 v 0 c -4.74089,3.62414 -2.35205,1.76152 -7.16359,5.59215 -5.178713,4.40986 -10.907094,9.43318 -12.997585,16.44448 -0.298726,1.00188 -0.355461,2.06793 -0.533193,3.1019 0.150779,1.69138 -0.09061,3.12674 1.279621,4.34666 2.93674,2.61458 9.002067,-2.0702 11.550557,-3.72693 1.90117,-1.77018 2.80955,-2.39409 4.26089,-4.71248 2.80155,-4.47519 3.706,-9.85369 4.12873,-15.10461 0.1523,-4.13903 0.20597,-4.60873 0.21119,-8.78359 0.005,-4.06414 -0.16856,-8.13752 -0.10499,-12.201 0.0175,-1.12163 0.0981,-2.24113 0.14714,-3.36169 0.0991,-0.92176 0.16551,-1.84816 0.29724,-2.76527 0.10326,-0.71887 1.05095,-1.89481 0.40708,-2.13821 -3.59445,-1.3588 -3.12255,0.72918 -3.72051,2.32209 -0.23255,0.61949 -0.51209,1.21781 -0.76815,1.82671 -1.59306,2.90345 -3.2569,5.59505 -5.55485,7.95085 -0.94328,0.96701 -2.00374,1.79561 -2.99913,2.70154 -0.0523,0.0476 -0.077,0.13739 -0.14297,0.15813 -1.054375,0.33168 -2.127,0.59367 -3.1905,0.8905 -0.907731,-0.20644 -1.898635,-0.16565 -2.723192,-0.61934 -4.17096,-2.29493 -2.680258,-9.03593 -0.803664,-12.37592 0.624852,-1.11212 1.552254,-1.99675 2.328379,-2.99512 -0.144981,-0.005 -0.573921,0.0307 -0.434944,-0.0135 0.873775,-0.27768 1.745243,-0.68822 2.657127,-0.69275 2.326114,-0.0115 3.894764,1.75911 4.695664,3.85466 0.16479,0.43117 0.2328,0.89737 0.34921,1.34606 0,0 3.52636,-2.01689 3.52636,-2.01689 z"
       inkscape:export-xdpi="96"
       inkscape:export-ydpi="96" />
    <path
       style="fill:#ff0000;stroke-width:0.246835"
       id="path102"
       d="m 128.05589,168.57822 c -1.10145,3.57115 -2.02332,7.34012 -2.2218,11.11332 -0.0437,0.8304 0.008,1.66337 0.0118,2.49505 0.30999,3.65334 2.05749,4.94949 4.88655,6.5247 0,0 3.21841,-2.25111 3.21841,-2.25111 v 0 c -2.76462,-1.44261 -4.41169,-2.57916 -4.72071,-6.11018 -7.2e-4,-0.81559 -0.0471,-1.63261 -0.002,-2.44676 0.21151,-3.79895 1.15409,-7.60268 2.46388,-11.12518 0,0 -3.63638,1.80016 -3.63638,1.80016 z"
       inkscape:export-xdpi="96"
       inkscape:export-ydpi="96" />
    <path
       style="fill:#ff0000;stroke-width:0.246835"
       id="path104"
       d="m 130.84397,156.21735 c 0.1668,-0.18545 0.30754,-0.40212 0.50038,-0.55633 0.20309,-0.16241 0.8828,-0.53317 0.67247,-0.38158 -0.95795,0.69046 -2.017,1.22777 -2.91806,2.00011 -0.0964,0.0826 0.23241,0.14158 0.27529,0.26514 0.1772,0.5107 -0.0459,0.65383 -0.29287,1.02785 1.01961,-0.70031 2.08898,-1.32466 3.05883,-2.10091 0.0718,-0.0575 -0.0877,-0.17114 -0.10219,-0.26555 -0.0295,-0.19275 -0.0724,-0.39566 -0.0279,-0.5851 0.12669,-0.53873 0.74083,-0.53445 0.54169,-0.44029 -1.28116,0.6057 -2.58058,1.16668 -3.87087,1.75002 0,0 3.76135,-1.68914 3.76135,-1.68914 v 0 c -1.22576,0.50498 -2.47203,0.95683 -3.6773,1.51494 -0.63055,0.29198 -0.13022,2.42611 0.15082,2.32381 1.38401,-0.50378 2.55265,-1.52088 3.82898,-2.28133 1.28717,-4.3051 -4.28865,-0.69729 -5.59363,1.16039 0,0 3.69296,-1.74203 3.69296,-1.74203 z"
       inkscape:export-xdpi="96"
       inkscape:export-ydpi="96" />
    <path
       style="fill:#ff0000;stroke-width:0.246835"
       id="path106"
       d="m 158.10663,152.64829 c 1.05748,-1.39048 3.07563,-4.51819 -2.97965,1.21314 -0.41103,0.38904 -0.2686,1.13544 -0.40835,1.70166 -0.25464,1.03174 -0.51654,2.06145 -0.7748,3.09217 -1.15531,4.65808 -2.21521,9.35022 -3.06727,14.08305 -0.36558,2.0306 -1.10962,6.2118 -0.98742,8.40877 0.0623,1.12096 0.44431,2.19549 0.66646,3.29323 2.43401,3.14604 0.94787,1.92114 4.48196,3.6421 0,0 3.10453,-2.19725 3.10453,-2.19725 v 0 c -3.39239,-1.52526 -1.95835,-0.40899 -4.33038,-3.30733 -0.22769,-1.0531 -0.61073,-2.08142 -0.68309,-3.15929 -0.14691,-2.18857 0.53299,-6.27195 0.88936,-8.29753 0.84043,-4.77696 1.94554,-9.50471 3.27036,-14.15462 0.31111,-1.05779 0.6208,-2.11606 0.9333,-3.1734 0.1784,-0.6036 1.12608,-1.70687 0.53941,-1.80939 -2.62823,-0.45928 -3.39252,0.84189 -4.34791,2.44322 0,0 3.69349,-1.77853 3.69349,-1.77853 z"
       inkscape:export-xdpi="96"
       inkscape:export-ydpi="96" />
    <path
       style="fill:#ff0000;stroke-width:0.246835"
       id="path116"
       d="m 145.32139,166.01227 c 3.09694,-0.23643 6.19971,0.34893 9.26226,0.78683 2.12118,0.29068 4.24965,0.51422 6.38261,0.67793 1.38065,0.71944 5.57028,-3.2001 3.58477,-2.27907 0,0 -3.14975,2.7111 -3.14975,2.7111 v 0 c 1.59576,-1.24219 5.78526,-3.19192 2.83545,-2.9317 -2.16675,-0.0901 -4.32865,-0.28526 -6.48112,-0.5646 -3.05938,-0.41402 -6.11846,-0.9433 -9.20752,-1.00069 0,0 -3.2267,2.6002 -3.2267,2.6002 z"
       inkscape:export-xdpi="96"
       inkscape:export-ydpi="96" />
    <path
       style="fill:#ff0000;stroke-width:0.246835"
       id="path118"
       d="m 182.12668,146.86442 c -0.44136,0.15363 0.99412,-1.04273 0.68483,-0.86097 -1.10928,0.65189 -2.24013,1.28221 -3.25555,2.08896 -0.16802,0.1335 -0.14753,0.42089 -0.18078,0.64122 -0.27647,1.83161 -0.44561,3.67986 -0.69046,5.51657 -1.08896,7.29473 -2.55937,14.51745 -4.41525,21.63297 -0.51768,2.11265 -1.04732,4.22274 -1.51653,6.3484 -0.0455,0.33338 -0.1572,0.81821 -0.39228,1.07249 -0.032,0.0346 -0.12194,-0.007 -0.13163,0.0405 -0.0153,0.0748 0.0533,0.14221 0.0798,0.21332 1.23119,-0.74989 2.53675,-1.37586 3.69355,-2.24965 0.1684,-0.1272 0.0797,-0.43183 0.13623,-0.6432 0.0985,-0.36773 0.18833,-0.74048 0.32851,-1.09255 0.76008,-1.90907 1.82751,-3.68281 2.86378,-5.42747 1.29549,-1.79172 2.58526,-3.70492 4.20928,-5.19137 0.40297,-0.36884 1.73671,-1.30424 1.31381,-0.9616 -2.27346,1.84204 -3.02159,1.54024 -0.98,1.67514 0.34524,0.22608 0.7363,0.38743 1.03572,0.67825 2.05721,1.99813 2.15018,5.13153 2.17496,7.85252 -0.20563,2.22669 -0.31974,4.55204 -1.0782,6.6617 0,0 3.62492,-1.81023 3.62492,-1.81023 v 0 c 0.60102,-2.17617 0.72677,-4.47687 0.90057,-6.72603 -0.0414,-3.54985 -0.37845,-6.9976 -3.43934,-9.08703 -0.41293,-0.0693 -0.84618,-0.36083 -1.23878,-0.20799 -4.82948,1.87999 -7.16739,4.48939 -10.01225,8.7533 -1.06037,1.80361 -2.15779,3.6219 -2.95574,5.58156 -0.15143,0.3719 -0.25602,0.76365 -0.37043,1.15024 -0.0665,0.22467 -0.38536,0.74504 -0.17198,0.68252 1.25962,-0.36899 2.3909,-1.12183 3.58635,-1.68275 0.0244,0.0571 0.0144,0.16857 0.0733,0.17129 0.0497,0.002 0.4252,-1.19601 0.40437,-1.33553 0.35125,-2.08663 0.82262,-4.14844 1.29034,-6.20805 1.67639,-7.14843 3.02317,-14.37676 4.29863,-21.61723 0.18567,-1.12314 0.37389,-2.24582 0.557,-3.36944 0.12666,-0.77726 0.32051,-1.54624 0.37232,-2.33318 0.0298,-0.45218 0.28743,-1.44463 -0.12965,-1.35285 -2.29609,0.50526 -3.26942,1.52355 -4.3872,3.1013 0,0 3.71777,-1.70517 3.71777,-1.70517 z"
       inkscape:export-xdpi="96"
       inkscape:export-ydpi="96" />
    <path
       style="fill:#ff0000;stroke-width:0.246835"
       id="path122"
       d="m 202.46153,166.1799 c -1.61961,4.0189 -3.01652,8.33083 -3.39001,12.71748 -0.076,0.89289 -0.0165,1.79301 -0.0248,2.68951 0.22463,1.04251 0.30449,2.79458 1.43894,3.42041 1.26327,0.6969 2.98701,-0.115 4.02443,-0.71492 5.07685,-2.93586 4.70416,-2.8151 8.16372,-5.82031 2.86715,-2.69433 5.5189,-5.64917 7.67008,-9.02172 -0.94949,0.66745 0.6155,-0.6437 0.41631,-0.54458 -1.31736,0.65549 -2.68528,1.21829 -3.92432,2.02855 -0.42972,0.28101 -1.73045,3.83077 -1.9087,4.25644 -0.20423,0.7319 -0.56238,1.43408 -0.61266,2.1957 -0.22211,3.36341 1.99201,4.10141 4.36223,5.30594 0,0 3.14215,-2.21252 3.14215,-2.21252 v 0 c -1.28752,-0.62987 -3.0703,-1.17494 -3.80067,-2.70164 -0.73754,-1.54169 -0.0273,-2.85858 0.40296,-4.28471 0.62752,-1.41116 0.91829,-2.14766 1.62506,-3.45575 0.15496,-0.28679 0.81259,-0.89247 0.50679,-0.83313 -3.22898,0.62669 -2.9299,0.46495 -3.86807,1.9488 -2.04752,3.3084 -4.6287,6.18143 -7.43003,8.77996 -0.83859,0.70732 -1.75496,1.32121 -2.51577,2.12197 -0.18765,0.19751 0.98547,-0.39514 0.75154,-0.2651 -0.75889,0.42189 -2.56553,1.52989 -3.65782,1.07571 -1.09841,-0.45673 -1.21009,-2.21852 -1.41994,-3.10228 2.3e-4,-0.86919 -0.0704,-1.74167 7.3e-4,-2.60754 0.36248,-4.41144 1.81327,-8.79975 3.73512,-12.69331 0,0 -3.68722,1.71704 -3.68722,1.71704 z"
       inkscape:export-xdpi="96"
       inkscape:export-ydpi="96" />
    <path
       style="fill:#ff0000;stroke-width:0.246835"
       id="path132"
       d="m 233.20427,172.97659 c 0.32787,-1.16381 0.9275,-2.25171 1.74418,-3.11069 0.42117,-0.44298 1.95284,-1.04973 1.37663,-1.19492 -0.62504,-0.15749 -1.80878,0.49015 -1.60321,1.13783 0.20083,0.63274 1.23598,-0.23186 1.85397,-0.34778 0.62881,0.16678 1.3059,0.19382 1.88642,0.50033 2.99647,1.58215 3.90006,5.47259 3.37088,8.71723 -0.15616,0.95748 -0.52873,1.86035 -0.79309,2.79052 -0.15246,2.21749 -2.38177,2.80759 -3.22891,4.45091 -0.28065,0.54444 1.49953,-0.53825 1.38003,-1.14608 -0.11835,-0.60202 -1.248,-0.0219 -1.68803,-0.42054 -1.49637,-1.3558 -1.59763,-4.25833 -1.89867,-5.96059 -0.32305,-10.89194 1.44688,-21.70022 3.29148,-32.37306 0,0 -3.28929,1.71335 -3.28929,1.71335 v 0 c -1.41985,10.77242 -3.26126,21.55904 -3.20383,32.47108 0.30359,1.98315 0.32721,4.88212 1.9163,6.47338 0.4759,0.47655 1.24367,0.83959 1.86775,0.63347 4.39358,-1.45116 6.25816,-3.6342 8.23188,-7.54734 0.25432,-0.96114 0.61756,-1.89694 0.76295,-2.8834 0.50847,-3.44996 -0.49105,-7.43277 -3.55211,-9.23048 -0.60179,-0.35342 -1.31362,-0.43109 -1.97043,-0.64663 -0.64311,0.0805 -1.33577,-0.0342 -1.92932,0.2413 -3.46731,1.60922 -6.92953,3.63009 -8.18501,7.59788 0,0 3.65943,-1.86577 3.65943,-1.86577 z"
       inkscape:export-xdpi="96"
       inkscape:export-ydpi="96" />
    <path
       style="fill:#ff0000;stroke-width:0.264583"
       id="path142"
       d="m 109.98421,278.9511 c 0.13007,-1.7913 1.18175,-3.06334 2.56436,-4.15385 0.64219,-0.50649 1.27899,-1.49757 2.07499,-1.30958 0.64957,0.15341 -0.89797,0.98769 -1.34696,1.48153 0.75435,0.12089 1.5087,0.24178 2.26305,0.36267 0.57367,0.61508 1.29907,1.11763 1.721,1.8452 2.24194,3.86607 1.0074,9.69865 -1.05773,13.35757 -0.53871,0.95446 -1.2978,1.76652 -1.9467,2.64978 -0.71854,0.53125 -1.26225,1.61454 -2.15562,1.59377 -0.75833,-0.0175 1.59656,-0.84804 1.61174,-1.60642 0.0122,-0.60814 -1.1706,-0.47895 -1.56069,-0.94567 -0.55689,-0.66628 -0.9213,-1.49482 -1.17363,-2.32572 -0.89971,-2.96272 -0.73975,-5.9532 -0.83639,-9.00943 0.25559,-11.01095 1.69021,-21.95298 3.28118,-32.83823 0.21012,-2.02075 0.69325,-3.99971 1.01511,-6.00028 0,0 -4.0179,2.00648 -4.0179,2.00648 v 0 c 0.0371,1.93079 -0.64046,3.85985 -0.63782,5.78995 -1.23601,10.90684 -2.62073,21.81627 -3.05883,32.7915 0.0167,3.55984 -0.62125,8.77618 1.82913,11.89602 0.44195,0.56268 1.0625,1.34297 1.76709,1.21853 3.76973,-0.66577 5.21831,-2.15974 7.70404,-4.20555 0.62044,-0.90342 1.34735,-1.74225 1.86133,-2.7102 2.05215,-3.86467 3.22131,-9.7961 0.95884,-13.83284 -0.45428,-0.81053 -1.22524,-1.39716 -1.83786,-2.09574 -0.79022,-0.16949 -1.58734,-0.70737 -2.37067,-0.50845 -3.05101,0.7748 -7.61918,2.92669 -9.64628,5.79495 -0.86124,1.2186 -0.78953,1.60163 -0.95167,2.8642 0,0 3.94689,-2.11019 3.94689,-2.11019 z"
       inkscape:export-xdpi="96"
       inkscape:export-ydpi="96" />
    <path
       style="fill:#ff0000;stroke-width:0.264583"
       id="path150"
       d="m 134.71777,275.46175 c 5.15896,-5.88351 10.03624,-11.98695 14.40094,-18.48342 2.25842,-3.67834 5.00157,-7.37788 3.67109,-11.85524 -1.5834,-3.30603 -2.68718,-1.99541 -6.29167,0.6825 -0.42747,0.31759 -0.55407,0.9096 -0.83111,1.3644 -3.03555,7.5219 -4.57074,15.5209 -6.1191,23.44846 -0.94465,5.75485 -2.44253,11.47789 -2.83855,17.31132 0.0183,3.46636 2.11401,3.15489 4.96606,3.15341 0,0 3.40376,-2.47981 3.40376,-2.47981 v 0 c -2.74537,0.0732 -4.39882,0.67302 -4.50347,-2.61565 0.27078,-5.75907 1.57698,-11.43177 2.53458,-17.09959 1.52043,-7.96098 3.04359,-16.06765 6.52305,-23.44719 1.62099,-2.10881 1.68249,-1.80718 -2.26251,0.35993 -0.12132,0.0666 0.27421,-0.11508 0.40773,-0.0786 0.59359,0.16216 0.88039,1.08649 1.15691,1.51039 1.29301,4.1383 -1.42094,7.93564 -3.46974,11.34351 -4.4022,6.62491 -9.35265,12.86452 -14.87678,18.5958 0,0 4.12881,-1.71022 4.12881,-1.71022 z"
       inkscape:export-xdpi="96"
       inkscape:export-ydpi="96" />
    <path
       style="fill:#ff0000;stroke-width:0.264583"
       id="path156"
       d="m 161.79194,287.30601 c -1.71906,-1.72603 -2.00261,-4.30247 -1.97317,-6.6176 0.34439,-2.37873 1.38685,-4.69297 3.11271,-6.40493 0.4043,-0.40102 1.8452,-1.32331 1.34116,-1.05828 -0.81721,0.42971 -1.52702,1.03831 -2.29052,1.55747 0.50639,-0.0499 1.01174,-0.18759 1.51918,-0.14978 3.14908,0.23466 5.2927,2.92897 6.86105,5.35012 1.4098,2.88689 1.64172,5.53407 -0.29181,8.26968 -0.36803,0.52067 -0.83788,0.96136 -1.25683,1.44203 -0.51125,0.38029 -2.15804,1.26839 -1.53377,1.14081 0.79829,-0.16315 1.58705,-0.62048 2.09706,-1.25593 0.34514,-0.43003 -1.01489,0.44614 -1.55092,0.57547 -1.56132,0.37671 -2.78626,0.0254 -4.21383,-0.55861 -0.90772,-0.54134 -1.5349,-1.35187 -2.1787,-2.16194 0,0 -3.79679,2.27761 -3.79679,2.27761 v 0 c 0.71834,0.83622 1.40755,1.69783 2.3501,2.30196 1.09722,0.48275 1.56786,0.79637 2.81339,0.88582 3.61837,0.25985 7.31977,-2.77225 9.95654,-4.87982 0.4063,-0.50667 0.86624,-0.97464 1.2189,-1.52 1.80671,-2.79389 1.60287,-5.81729 0.0838,-8.67614 -1.64328,-2.55516 -3.82945,-5.28613 -7.06852,-5.7572 -0.52953,-0.077 -1.07001,0.0198 -1.605,0.0298 -1.70416,0.91432 -3.45821,1.74117 -5.11248,2.74293 -2.52115,1.52673 -3.90791,5.06315 -4.32435,7.81818 0.006,2.47298 0.36906,5.10862 2.05931,7.0414 0,0 3.78347,-2.39302 3.78347,-2.39302 z"
       inkscape:export-xdpi="96"
       inkscape:export-ydpi="96" />
    <path
       style="fill:#ff0000;stroke-width:0.264583"
       id="path162"
       d="m 200.05918,276.05394 c -0.21108,-1.71648 -1.44574,-3.34756 -3.29276,-3.49557 -0.44695,-0.0358 -0.89191,0.0931 -1.33787,0.13962 -1.70756,1.08707 -3.58605,1.94353 -5.12268,3.26118 -0.6254,0.53631 -0.84702,1.41629 -1.2001,2.16067 -1.10966,2.33939 -2.06728,5.10143 -2.06369,7.72652 0.001,0.75131 0.20708,1.48828 0.31062,2.23245 0.60746,1.58149 1.39429,3.4916 3.27134,3.93295 3.32192,0.7811 7.79641,-3.45768 9.63041,-4.69154 3.41694,-3.88448 6.39021,-8.44651 7.81059,-13.46904 -0.0161,-0.17767 0.11466,-0.60534 -0.0484,-0.53298 -1.56274,0.69332 -3.1257,1.46386 -4.45974,2.53305 -0.42505,0.34067 -0.43832,1.00002 -0.59822,1.52074 -0.25197,0.82058 -0.441,1.65949 -0.63506,2.49568 -0.60266,2.5967 -0.67075,3.21922 -1.12837,5.86756 -0.87163,5.5213 -0.72686,11.12332 -1.5226,16.65155 -0.81064,3.61098 -2.34197,7.26557 -5.12645,9.83155 -0.62378,0.57483 -1.26508,1.22457 -2.07692,1.47045 -0.66087,0.20016 1.06218,-0.88262 1.59327,-1.32395 -0.5377,-0.0324 -1.11301,0.10287 -1.6131,-0.0973 -1.33118,-0.53292 -1.15399,-1.79144 -0.78977,-2.93489 1.44661,-4.54176 5.24363,-7.99089 8.39417,-11.3298 1.44691,-1.34705 2.89382,-2.6941 4.34073,-4.04114 0,0 -3.47975,1.4275 -3.47975,1.4275 v 0 c -1.4461,1.35525 -2.89219,2.71053 -4.33829,4.06578 -3.13876,3.32486 -7.40257,7.18576 -8.71458,11.7866 -0.40486,1.41973 -0.40501,2.83046 1.07453,3.52928 0.53969,0.2549 1.18507,0.1434 1.7776,0.21508 2.3775,-1.19568 5.6117,-2.37384 7.67728,-4.40084 2.73521,-2.68412 4.23964,-6.37284 5.03374,-10.04451 0.76199,-5.51963 0.62926,-11.11091 1.49098,-16.62012 0.41055,-2.28402 0.60028,-3.61873 1.19872,-5.85486 0.22485,-0.84018 0.46324,-1.67936 0.77294,-2.49211 0.19695,-0.51684 1.29439,-1.45195 0.74223,-1.48399 -4.05137,-0.23517 -3.83359,0.21941 -3.50041,1.63747 -1.28289,4.96592 -4.26957,9.44462 -7.73684,13.14869 0.46503,-0.0948 1.70511,-0.64368 1.39509,-0.28435 -0.45344,0.52557 -1.22858,0.66908 -1.8949,0.86365 -2.60639,0.76107 -3.98763,-1.17234 -4.78121,-3.35804 -0.10008,-0.70456 -0.30206,-1.40208 -0.30023,-2.1137 0.007,-2.5577 0.96175,-5.33868 2.14735,-7.57087 0.38422,-0.72337 1.89603,-1.46402 1.33637,-2.06208 -0.58076,-0.62058 -1.57203,0.64688 -2.35804,0.97033 0.40724,-0.0904 0.8047,-0.26067 1.22172,-0.2713 1.71203,-0.0437 2.86556,1.46333 2.90098,3.04241 0,0 3.99932,-2.03774 3.99932,-2.03774 z"
       inkscape:export-xdpi="96"
       inkscape:export-ydpi="96" />
  </g>
</svg>
